HIERARCHY
ROOT Hips
{
	OFFSET 0.000000 0.000000 0.000000 
	CHANNELS 6 Xposition Yposition Zposition Zrotation Yrotation Xrotation
	JOINT LeftUpLeg
	{
		OFFSET 1.363060 -1.794630 0.839290 
		CHANNELS 3 Zrotation Yrotation Xrotation
		JOINT LeftLeg
		{
			OFFSET 2.448110 -6.726130 0.000000 
			CHANNELS 3 Zrotation Yrotation Xrotation
			JOINT LeftFoot
			{
				OFFSET 2.562200 -7.039590 0.000000 
				CHANNELS 3 Zrotation Yrotation Xrotation
				JOINT LeftToeBase
				{
					OFFSET 0.157640 -0.433110 2.322550 
					CHANNELS 3 Zrotation Yrotation Xrotation
					End Site
					{
						OFFSET 0.000000 0.000000 0.000000 
					}
				}
			}
		}
	}
	JOINT RightUpLeg
	{
		OFFSET -1.305520 -1.794630 0.839290 
		CHANNELS 3 Zrotation Yrotation Xrotation
		JOINT RightLeg
		{
			OFFSET -2.542530 -6.985550 0.000000 
			CHANNELS 3 Zrotation Yrotation Xrotation
			JOINT RightFoot
			{
				OFFSET -2.568260 -7.056230 0.000000 
				CHANNELS 3 Zrotation Yrotation Xrotation
				JOINT RightToeBase
				{
					OFFSET -0.164730 -0.452590 2.363150 
					CHANNELS 3 Zrotation Yrotation Xrotation
					End Site
					{
						OFFSET 0.000000 0.000000 0.000000 
					}
				}
			}
		}
	}
	JOINT Spine
	{
		OFFSET 0.028270 2.035590 -0.193380 
		CHANNELS 3 Zrotation Yrotation Xrotation
		JOINT Spine1
		{
			OFFSET 0.056720 2.048850 -0.042750 
			CHANNELS 3 Zrotation Yrotation Xrotation
			JOINT Neck1
			{
				OFFSET -0.054170 1.746240 0.172020 
				CHANNELS 3 Zrotation Yrotation Xrotation
				JOINT Head
				{
					OFFSET 0.104070 1.761360 -0.123970 
					CHANNELS 3 Zrotation Yrotation Xrotation
					End Site
					{
						OFFSET 0.000000 0.000000 0.000000 
					}
				}
			}
			JOINT LeftArm
			{
				OFFSET 3.362410 1.200890 -0.311210 
				CHANNELS 3 Zrotation Yrotation Xrotation
				JOINT LeftForeArm
				{
					OFFSET 4.983000 -0.000000 -0.000000 
					CHANNELS 3 Zrotation Yrotation Xrotation
					JOINT LeftHand
					{
						OFFSET 3.483560 -0.000000 -0.000000 
						CHANNELS 3 Zrotation Yrotation Xrotation
						JOINT LeftHandIndex1
						{
							OFFSET 0.715260 -0.000000 -0.000000 
							CHANNELS 3 Zrotation Yrotation Xrotation
							End Site
							{
								OFFSET 0.000000 0.000000 0.000000 
							}
						}
					}
				}
			}
			JOINT RightArm
			{
				OFFSET -3.136600 1.374050 -0.404650 
				CHANNELS 3 Zrotation Yrotation Xrotation
				JOINT RightForeArm
				{
					OFFSET -5.241900 -0.000000 -0.000000 
					CHANNELS 3 Zrotation Yrotation Xrotation
					JOINT RightHand
					{
						OFFSET -3.444170 -0.000000 -0.000000 
						CHANNELS 3 Zrotation Yrotation Xrotation
						JOINT RightHandIndex1
						{
							OFFSET -0.622530 -0.000000 -0.000000 
							CHANNELS 3 Zrotation Yrotation Xrotation
							End Site
							{
								OFFSET 0.000000 0.000000 0.000000 
							}
						}
					}
				}
			}
		}
	}
}
MOTION
Frames: 15
Frame Time: 0.041667
15.112847 17.796073 -4.707241 -104.335884 -87.173472 117.534585 -12.335771 -6.132304 -28.729496 3.201558 11.172168 36.386871 -0.254806 3.279035 -3.582525 0.303600 -3.542700 -9.793600 17.657356 13.490130 -24.764404 -3.320145 -10.517546 36.197753 -0.160531 -2.907039 -5.368697 -0.210700 -2.955100 8.153700 6.081791 1.205351 0.018170 2.695294 0.777665 -2.806626 -0.129712 -0.283919 31.309940 -0.345800 -0.972100 14.683600 -83.040073 5.472019 18.735883 18.466869 -25.629869 -4.283376 -0.158605 -0.264929 -2.021510 -7.125000 0.000000 0.000000 77.013513 2.081380 20.323440 -14.615240 21.357262 -3.260136 0.688874 -0.529688 0.136604 7.125000 0.000000 0.000000 
15.104916 17.789848 -4.724308 -101.421480 -87.252584 114.599701 -12.384440 -6.161244 -29.269934 3.466930 11.463577 37.401018 -0.219009 3.120199 -3.298410 0.359700 -3.852800 -10.662900 17.738547 13.381683 -24.711649 -3.313443 -10.507150 36.174819 -0.166163 -2.904948 -5.432217 -0.203900 -2.907800 8.022000 6.016575 1.195849 0.034586 2.645418 0.773234 -2.838099 -0.145802 -0.365891 31.294397 -0.373600 -0.998700 14.668200 -82.924123 5.431464 19.019506 18.455429 -25.619475 -4.280311 -0.158362 -0.261106 -2.048436 -7.125000 0.000000 0.000000 77.118035 2.126090 20.017685 -14.647144 21.394514 -3.271134 0.678966 -0.528481 0.149612 7.125000 0.000000 0.000000 
15.097386 17.788543 -4.737962 -99.745523 -87.233749 112.860741 -12.357665 -6.197129 -29.807903 3.768389 11.784156 38.538057 -0.119121 2.780372 -3.115272 0.267500 -3.327200 -9.191200 17.879759 13.317808 -24.637849 -3.318554 -10.504315 36.193502 -0.144907 -2.962784 -5.511369 -0.193800 -2.835000 7.819700 6.114780 1.077238 0.159112 2.616401 0.717889 -2.830337 -0.115283 -0.329372 31.173512 -0.338000 -0.991800 14.607800 -82.969234 5.354835 18.967257 18.501581 -25.682405 -4.303637 -0.161445 -0.263724 -2.333272 -7.125000 0.000000 0.000000 77.056683 2.196645 20.186465 -14.725260 21.499567 -3.304345 0.681555 -0.528407 0.098401 7.125000 0.000000 0.000000 
15.092366 17.780712 -4.754729 -96.983845 -87.241680 110.119941 -12.352423 -6.214213 -30.508248 4.076085 12.108589 39.683660 -0.048332 2.513600 -2.866272 0.265700 -3.316200 -9.160300 18.034135 13.222946 -24.696807 -3.320992 -10.497266 36.198741 -0.119153 -3.023631 -5.515208 -0.181600 -2.744500 7.568200 6.185499 0.987223 0.136309 2.598970 0.674430 -2.878480 -0.090493 -0.317051 31.102522 -0.317100 -0.988100 14.565400 -82.995908 5.359379 19.046200 18.613598 -25.828016 -4.356193 -0.160026 -0.268148 -2.527733 -7.125000 0.000000 0.000000 76.998325 2.261102 20.211960 -14.721497 21.496520 -3.303851 0.684186 -0.529939 0.285988 7.125000 0.000000 0.000000 
15.085238 17.773885 -4.772198 -93.041728 -87.283694 106.190549 -12.384405 -6.152646 -31.290463 4.403352 12.449179 40.890359 0.037088 2.180475 -2.479865 0.338000 -3.735900 -10.334700 18.139471 13.125731 -24.719934 -3.318844 -10.483522 36.183996 -0.127844 -2.996141 -5.437817 -0.173900 -2.686600 7.407500 6.215031 0.958444 0.157647 2.591325 0.664352 -2.889906 -0.066768 -0.349787 31.088303 -0.319300 -0.989300 14.565300 -82.989465 5.333262 19.299906 18.665497 -25.892822 -4.380153 -0.156682 -0.266194 -2.469779 -7.125000 0.000000 0.000000 76.952495 2.255170 20.145466 -14.752647 21.541419 -3.316779 0.674667 -0.530336 0.293259 7.125000 0.000000 0.000000 
15.073893 17.775592 -4.787960 -89.250024 -87.249292 102.445682 -12.314992 -6.227139 -32.095848 4.744398 12.791187 42.123198 0.115889 1.852982 -2.047502 0.324800 -3.663100 -10.130800 18.321490 12.939925 -24.779857 -3.310865 -10.465630 36.151526 -0.065642 -3.143706 -5.427984 -0.126300 -2.290800 6.310100 6.363744 0.942902 0.222851 2.592765 0.662657 -2.809773 0.027266 -0.443457 31.028249 -0.263200 -1.035900 14.548600 -83.052358 5.185146 19.474908 18.655546 -25.881460 -4.379554 -0.162428 -0.265151 -2.371985 -7.125000 0.000000 0.000000 76.753890 2.345990 20.369574 -14.723565 21.505394 -3.307142 0.691953 -0.530476 -0.091911 7.125000 0.000000 0.000000 
15.065761 17.770271 -4.804727 -86.965872 -87.065849 100.125960 -12.099265 -6.315623 -32.803349 5.089292 13.129978 43.339678 0.027097 2.064157 -1.696283 0.389000 -4.005100 -11.091100 18.664316 12.677231 -24.783849 -3.297678 -10.440762 36.102623 -0.091778 -3.081749 -5.416145 -0.103100 -2.070300 5.700000 6.594899 0.912911 0.299312 2.573363 0.653487 -2.835906 -0.049028 -0.424392 30.989528 -0.293200 -1.036200 14.545000 -83.087970 5.085013 19.625666 18.690996 -25.928786 -4.397863 -0.163405 -0.266951 -2.483398 -7.125000 0.000000 0.000000 76.628697 2.406267 20.579814 -14.765370 21.564122 -3.326006 0.711846 -0.524645 -0.454567 7.125000 0.000000 0.000000 
15.054717 17.763544 -4.821594 -86.560700 -86.807541 99.615195 -11.823685 -6.298920 -33.433079 5.428520 13.455409 44.520477 -0.033357 2.204186 -1.389263 0.492000 -4.497400 -12.480400 19.053335 12.563694 -24.639125 -3.284699 -10.407081 36.045276 -0.198342 -2.827143 -5.434353 -0.136800 -2.383800 6.567500 6.890609 0.900592 0.390890 2.548857 0.650992 -2.877582 -0.091327 -0.358201 30.976103 -0.300700 -1.015900 14.545200 -83.180451 5.015258 19.679440 18.712787 -25.951564 -4.404877 -0.157914 -0.268454 -2.548103 -7.125000 0.000000 0.000000 76.576229 2.440936 20.478233 -14.797483 21.609337 -3.336871 0.702731 -0.515815 -0.343814 7.125000 0.000000 0.000000 
15.041465 17.764649 -4.835348 -85.250127 -86.692259 98.260711 -11.670952 -6.327650 -34.123613 5.759643 13.761460 45.670113 -0.001912 2.052682 -1.133581 0.518600 -4.615400 -12.814900 19.277788 12.465950 -24.528725 -3.261839 -10.368974 35.951601 -0.223294 -2.768775 -5.449004 -0.136500 -2.381700 6.561800 6.984401 0.903020 0.427824 2.491595 0.653654 -2.888549 -0.100698 -0.419616 30.911830 -0.322900 -1.032700 14.494500 -83.120624 5.036612 20.089702 18.796290 -26.058718 -4.444675 -0.153434 -0.268420 -2.827890 -7.125000 0.000000 0.000000 76.580354 2.420829 20.240614 -14.836674 21.662524 -3.350958 0.689320 -0.510530 -0.102488 7.125000 0.000000 0.000000 
15.029517 17.761335 -4.849103 -82.861694 -86.727794 95.874062 -11.652467 -6.474013 -34.877917 6.090214 14.051937 46.801581 -0.029277 2.093955 -0.971895 0.596000 -4.942200 -13.743800 19.361930 12.287156 -24.513036 -3.226481 -10.326801 35.816486 -0.137582 -2.979897 -5.479573 -0.104800 -2.087200 5.746800 6.924674 0.894400 0.570224 2.467186 0.656500 -2.826028 -0.057742 -0.572096 30.859892 -0.332800 -1.080400 14.485000 -83.009249 4.857006 20.292815 18.840239 -26.116224 -4.466517 -0.153835 -0.272596 -2.879345 -7.125000 0.000000 0.000000 76.495594 2.507677 20.284842 -14.882443 21.720914 -3.369133 0.690284 -0.506352 -0.138955 7.125000 0.000000 0.000000 
15.018273 17.750995 -4.856934 -80.709889 -86.655617 93.648626 -11.524553 -6.656213 -35.532936 6.408864 14.325789 47.869242 -0.112840 2.321472 -0.736391 0.713500 -5.398200 -15.047800 19.570292 11.991687 -24.414207 -3.188561 -10.283053 35.678261 -0.054947 -3.189710 -5.562886 -0.077500 -1.795900 4.941900 6.862866 0.892732 0.689030 2.354251 0.659180 -2.852233 -0.039619 -0.672244 30.848150 -0.351300 -1.107300 14.495300 -82.891299 4.791691 20.519324 18.952043 -26.263067 -4.520243 -0.150792 -0.274599 -3.064671 -7.125000 0.000000 0.000000 76.534706 2.569465 19.949835 -14.886683 21.722197 -3.370293 0.685460 -0.508232 0.136484 7.125000 0.000000 0.000000 
15.005221 17.736939 -4.855428 -80.190183 -86.573945 93.041192 -11.395995 -6.884832 -36.131201 6.708293 14.568625 48.858122 -0.187687 2.536822 -0.616466 0.831000 -5.815600 -16.250300 19.796452 11.492490 -24.413918 -3.155959 -10.263127 35.578270 0.153864 -3.693266 -5.603391 -0.012300 -0.716700 1.969700 6.880846 0.947207 0.769278 2.213087 0.685052 -2.896968 0.054946 -0.764694 30.826050 -0.306300 -1.146900 14.479500 -82.892402 4.711725 20.784881 19.019679 -26.349759 -4.552162 -0.146392 -0.276763 -3.258785 -7.125000 0.000000 0.000000 76.598044 2.700067 19.047516 -14.750043 21.538245 -3.319571 0.680924 -0.536800 0.886946 7.125000 0.000000 0.000000 
14.990362 17.741156 -4.854122 -78.650983 -86.549459 91.532325 -11.361277 -7.145134 -36.769332 6.953097 14.766192 49.671224 -0.227016 2.666144 -0.822890 0.873000 -5.957200 -16.660400 19.832195 11.182385 -24.515009 -3.125200 -10.238131 35.470676 -0.018264 -3.288244 -5.476420 -0.019100 -0.892900 2.454100 7.017362 0.963479 0.622862 2.151370 0.689942 -3.024817 0.091398 -0.756912 30.899667 -0.258600 -1.167700 14.497800 -83.064328 4.857906 21.019371 19.170623 -26.541375 -4.624846 -0.141888 -0.279786 -3.248958 -7.125000 0.000000 0.000000 76.402558 2.640331 18.922952 -14.635406 21.405800 -3.275804 0.627122 -0.557574 1.029558 7.125000 0.000000 0.000000 
14.972391 17.753304 -4.862355 -78.189004 -86.570152 91.116885 -11.339754 -7.159271 -37.433338 7.126495 14.918484 50.281597 -0.017435 1.988447 -1.238778 0.622000 -5.047100 -14.042800 19.794986 11.189808 -24.538096 -3.112161 -10.216362 35.410547 -0.261317 -2.711409 -5.394596 -0.041400 -1.313900 3.612900 7.098854 0.938369 0.747160 2.164569 0.683867 -2.928683 0.122706 -0.762086 30.856372 -0.228400 -1.179600 14.488200 -83.186454 4.697344 21.042771 19.213328 -26.588790 -4.643243 -0.139657 -0.279735 -3.196847 -7.125000 0.000000 0.000000 76.185540 2.799242 19.258812 -14.554091 21.308147 -3.247604 0.578876 -0.583667 0.765684 7.125000 0.000000 0.000000 
14.952412 17.761837 -4.870989 -80.743484 -86.417799 93.579120 -11.072038 -7.102654 -37.883770 7.240705 15.025494 50.673187 0.171019 1.367780 -1.429962 0.454600 -4.325500 -11.994200 19.975697 11.318583 -24.323842 -3.106920 -10.195446 35.376662 -0.380466 -2.430544 -5.477460 -0.054500 -1.506000 4.142400 7.154251 1.043285 0.815027 2.070766 0.729870 -2.984626 0.038011 -0.816436 30.934865 -0.297400 -1.195800 14.531500 -83.165201 4.752070 21.221992 19.335811 -26.749507 -4.704206 -0.137721 -0.281545 -3.394909 -7.125000 0.000000 0.000000 76.096271 2.743381 19.585570 -14.573146 21.343189 -3.258786 0.569314 -0.592968 0.253682 7.125000 0.000000 0.000000 
